<mxfile host="app.diagrams.net" modified="2022-09-30T14:19:32.114Z" agent="5.0 (Windows NT 10.0; Win64; x64) AppleWebKit/537.36 (KHTML, like Gecko) Chrome/105.0.0.0 Safari/537.36" etag="OhZEfOQAJi979fj6ofaL" version="20.4.0" type="github">
  <diagram id="R2lEEEUBdFMjLlhIrx00" name="Page-1">
    <mxGraphModel dx="1422" dy="794" grid="1" gridSize="10" guides="1" tooltips="1" connect="1" arrows="1" fold="1" page="1" pageScale="1" pageWidth="850" pageHeight="1100" math="0" shadow="0" extFonts="Permanent Marker^https://fonts.googleapis.com/css?family=Permanent+Marker">
      <root>
        <mxCell id="0" />
        <mxCell id="1" parent="0" />
        <mxCell id="U9ikiV5P06atG0igZfnC-1" value="Termék" style="rounded=0;whiteSpace=wrap;html=1;" vertex="1" parent="1">
          <mxGeometry x="160" y="160" width="120" height="40" as="geometry" />
        </mxCell>
        <mxCell id="U9ikiV5P06atG0igZfnC-2" value="Gyártó" style="rounded=0;whiteSpace=wrap;html=1;" vertex="1" parent="1">
          <mxGeometry x="520" y="160" width="120" height="40" as="geometry" />
        </mxCell>
        <mxCell id="U9ikiV5P06atG0igZfnC-3" value="T-Gy" style="shape=rhombus;perimeter=rhombusPerimeter;whiteSpace=wrap;html=1;align=center;" vertex="1" parent="1">
          <mxGeometry x="350" y="160" width="100" height="40" as="geometry" />
        </mxCell>
        <mxCell id="U9ikiV5P06atG0igZfnC-4" value="" style="edgeStyle=entityRelationEdgeStyle;fontSize=12;html=1;endArrow=ERmany;rounded=0;entryX=1;entryY=0.5;entryDx=0;entryDy=0;exitX=0;exitY=0.5;exitDx=0;exitDy=0;" edge="1" parent="1" source="U9ikiV5P06atG0igZfnC-3" target="U9ikiV5P06atG0igZfnC-1">
          <mxGeometry width="100" height="100" relative="1" as="geometry">
            <mxPoint x="240" y="320" as="sourcePoint" />
            <mxPoint x="340" y="220" as="targetPoint" />
          </mxGeometry>
        </mxCell>
        <mxCell id="U9ikiV5P06atG0igZfnC-5" value="tkód" style="ellipse;whiteSpace=wrap;html=1;verticalAlign=middle;fontStyle=4" vertex="1" parent="1">
          <mxGeometry x="50" y="100" width="70" height="50" as="geometry" />
        </mxCell>
        <mxCell id="U9ikiV5P06atG0igZfnC-6" value="név" style="ellipse;whiteSpace=wrap;html=1;" vertex="1" parent="1">
          <mxGeometry x="50" y="170" width="70" height="50" as="geometry" />
        </mxCell>
        <mxCell id="U9ikiV5P06atG0igZfnC-7" value="ear" style="ellipse;whiteSpace=wrap;html=1;" vertex="1" parent="1">
          <mxGeometry x="50" y="240" width="70" height="50" as="geometry" />
        </mxCell>
        <mxCell id="U9ikiV5P06atG0igZfnC-8" value="" style="endArrow=none;html=1;rounded=0;exitX=1;exitY=0.5;exitDx=0;exitDy=0;entryX=0.5;entryY=0;entryDx=0;entryDy=0;" edge="1" parent="1" source="U9ikiV5P06atG0igZfnC-5" target="U9ikiV5P06atG0igZfnC-1">
          <mxGeometry relative="1" as="geometry">
            <mxPoint x="310" y="230" as="sourcePoint" />
            <mxPoint x="470" y="230" as="targetPoint" />
          </mxGeometry>
        </mxCell>
        <mxCell id="U9ikiV5P06atG0igZfnC-9" value="" style="endArrow=none;html=1;rounded=0;exitX=1;exitY=0.5;exitDx=0;exitDy=0;entryX=0;entryY=0.5;entryDx=0;entryDy=0;" edge="1" parent="1" source="U9ikiV5P06atG0igZfnC-6" target="U9ikiV5P06atG0igZfnC-1">
          <mxGeometry relative="1" as="geometry">
            <mxPoint x="310" y="230" as="sourcePoint" />
            <mxPoint x="470" y="230" as="targetPoint" />
          </mxGeometry>
        </mxCell>
        <mxCell id="U9ikiV5P06atG0igZfnC-10" value="" style="endArrow=none;html=1;rounded=0;exitX=1;exitY=0.5;exitDx=0;exitDy=0;entryX=0.5;entryY=1;entryDx=0;entryDy=0;" edge="1" parent="1" source="U9ikiV5P06atG0igZfnC-7" target="U9ikiV5P06atG0igZfnC-1">
          <mxGeometry relative="1" as="geometry">
            <mxPoint x="310" y="230" as="sourcePoint" />
            <mxPoint x="470" y="230" as="targetPoint" />
          </mxGeometry>
        </mxCell>
        <mxCell id="U9ikiV5P06atG0igZfnC-11" value="adószám" style="ellipse;whiteSpace=wrap;html=1;verticalAlign=middle;fontStyle=4" vertex="1" parent="1">
          <mxGeometry x="680" y="90" width="70" height="50" as="geometry" />
        </mxCell>
        <mxCell id="U9ikiV5P06atG0igZfnC-12" value="név" style="ellipse;whiteSpace=wrap;html=1;verticalAlign=middle;fontStyle=4" vertex="1" parent="1">
          <mxGeometry x="680" y="160" width="70" height="50" as="geometry" />
        </mxCell>
        <mxCell id="U9ikiV5P06atG0igZfnC-13" value="telephely" style="ellipse;whiteSpace=wrap;html=1;verticalAlign=middle;fontStyle=4" vertex="1" parent="1">
          <mxGeometry x="680" y="230" width="70" height="50" as="geometry" />
        </mxCell>
        <mxCell id="U9ikiV5P06atG0igZfnC-14" value="" style="endArrow=none;html=1;rounded=0;entryX=0;entryY=0.5;entryDx=0;entryDy=0;exitX=0.5;exitY=0;exitDx=0;exitDy=0;" edge="1" parent="1" source="U9ikiV5P06atG0igZfnC-2" target="U9ikiV5P06atG0igZfnC-11">
          <mxGeometry relative="1" as="geometry">
            <mxPoint x="310" y="230" as="sourcePoint" />
            <mxPoint x="470" y="230" as="targetPoint" />
          </mxGeometry>
        </mxCell>
        <mxCell id="U9ikiV5P06atG0igZfnC-15" value="" style="endArrow=none;html=1;rounded=0;entryX=0;entryY=0.5;entryDx=0;entryDy=0;exitX=1;exitY=0.5;exitDx=0;exitDy=0;" edge="1" parent="1" source="U9ikiV5P06atG0igZfnC-2" target="U9ikiV5P06atG0igZfnC-12">
          <mxGeometry relative="1" as="geometry">
            <mxPoint x="310" y="230" as="sourcePoint" />
            <mxPoint x="470" y="230" as="targetPoint" />
          </mxGeometry>
        </mxCell>
        <mxCell id="U9ikiV5P06atG0igZfnC-16" value="" style="endArrow=none;html=1;rounded=0;entryX=0;entryY=0.5;entryDx=0;entryDy=0;exitX=0.5;exitY=1;exitDx=0;exitDy=0;" edge="1" parent="1" source="U9ikiV5P06atG0igZfnC-2" target="U9ikiV5P06atG0igZfnC-13">
          <mxGeometry relative="1" as="geometry">
            <mxPoint x="310" y="230" as="sourcePoint" />
            <mxPoint x="470" y="230" as="targetPoint" />
          </mxGeometry>
        </mxCell>
        <mxCell id="U9ikiV5P06atG0igZfnC-17" value="" style="edgeStyle=entityRelationEdgeStyle;fontSize=12;html=1;endArrow=ERone;endFill=1;rounded=0;entryX=0;entryY=0.5;entryDx=0;entryDy=0;exitX=1;exitY=0.5;exitDx=0;exitDy=0;" edge="1" parent="1" source="U9ikiV5P06atG0igZfnC-3" target="U9ikiV5P06atG0igZfnC-2">
          <mxGeometry width="100" height="100" relative="1" as="geometry">
            <mxPoint x="375" y="290" as="sourcePoint" />
            <mxPoint x="475" y="190" as="targetPoint" />
          </mxGeometry>
        </mxCell>
      </root>
    </mxGraphModel>
  </diagram>
</mxfile>
